<svg id="svg" version="1.1" xmlns="http://www.w3.org/2000/svg" xmlns:xlink="http://www.w3.org/1999/xlink" width="400" height="197.75280898876403" viewBox="0, 0, 400,197.75280898876403"><g id="svgg"><path id="path0" d="M72.881 12.450 C 70.184 16.826,65.302 25.295,62.033 31.270 C 58.763 37.246,53.894 45.421,51.213 49.438 C 48.532 53.455,43.875 61.479,40.866 67.270 C 34.841 78.862,33.851 79.740,29.806 77.090 C 17.981 69.342,6.901 96.604,11.202 122.865 C 12.208 129.010,12.061 129.868,8.948 136.035 C 5.047 143.764,4.789 146.067,7.826 146.067 C 10.407 146.067,12.360 142.938,12.360 138.803 C 12.360 135.243,15.161 133.932,18.407 135.973 C 22.405 138.486,29.404 139.283,33.141 137.651 C 43.636 133.069,56.326 112.415,63.536 88.180 C 71.919 60.003,72.734 50.074,66.881 47.408 C 63.078 45.675,63.307 42.882,67.740 36.959 C 72.442 30.678,83.146 8.495,83.146 5.033 C 83.146 1.189,77.152 5.520,72.881 12.450 M322.132 13.764 C 321.240 17.008,319.645 25.225,318.588 32.022 C 317.531 38.820,315.697 47.145,314.513 50.523 C 313.328 53.900,312.360 57.755,312.360 59.089 C 312.360 60.424,311.561 63.728,310.585 66.432 C 309.609 69.136,308.378 76.152,307.849 82.022 C 306.217 100.149,304.333 107.254,301.073 107.575 C 296.775 107.998,289.690 102.350,286.737 96.146 L 284.147 90.708 280.890 93.829 C 279.098 95.546,276.867 98.562,275.933 100.531 C 272.090 108.629,262.836 114.700,258.120 112.217 C 254.183 110.144,253.880 109.009,254.644 99.181 C 255.428 89.074,254.689 87.766,249.003 89.194 C 245.104 90.172,230.557 104.836,229.723 108.628 C 228.548 113.969,228.299 114.418,225.483 116.263 C 211.738 125.269,192.343 111.133,192.172 91.983 C 192.151 89.736,191.422 86.204,190.552 84.134 C 189.382 81.352,189.281 79.784,190.166 78.132 C 190.824 76.902,191.760 74.367,192.246 72.498 C 192.731 70.630,194.202 66.067,195.515 62.360 C 196.827 58.652,199.936 49.045,202.423 41.011 C 204.911 32.978,207.735 25.070,208.699 23.438 C 211.170 19.255,208.376 11.798,204.338 11.798 C 201.838 11.798,201.640 12.314,200.887 20.787 C 199.553 35.792,195.255 51.680,188.690 65.872 C 186.939 69.658,185.156 74.208,184.729 75.984 C 184.301 77.760,182.473 83.764,180.667 89.326 C 177.302 99.683,176.640 102.265,173.611 116.826 C 171.748 125.781,171.960 128.090,174.644 128.090 C 176.935 128.090,178.505 124.820,179.902 117.139 C 182.993 100.148,185.885 96.606,190.000 104.775 C 198.008 120.671,215.325 128.392,226.078 120.860 C 227.460 119.893,229.650 119.101,230.946 119.101 C 232.242 119.101,236.013 117.079,239.326 114.607 C 246.622 109.163,246.303 109.177,251.990 114.045 C 259.409 120.395,264.531 119.262,274.714 109.018 C 281.351 102.340,282.621 102.171,288.602 107.168 C 291.101 109.256,294.913 111.296,297.072 111.701 C 299.576 112.171,301.251 113.238,301.698 114.647 C 303.890 121.552,312.698 115.944,314.067 106.771 C 314.393 104.592,315.398 100.281,316.300 97.191 C 317.203 94.101,318.467 89.453,319.109 86.863 C 319.826 83.970,322.001 80.357,324.745 77.501 C 330.437 71.576,331.436 61.464,326.514 59.592 C 322.423 58.037,322.154 56.786,324.083 48.305 C 325.553 41.843,329.164 14.309,329.203 9.270 C 329.239 4.598,323.682 8.130,322.132 13.764 M152.354 50.750 C 151.368 52.157,150.562 54.407,150.562 55.750 C 150.562 69.490,135.662 92.101,126.561 92.171 C 124.003 92.190,120.929 92.949,119.729 93.856 C 113.278 98.735,108.455 93.422,109.382 82.456 C 110.374 70.725,106.273 69.640,102.942 80.753 C 102.084 83.614,100.134 88.736,98.608 92.135 C 97.081 95.534,95.537 99.161,95.175 100.195 C 93.483 105.038,88.595 111.236,86.467 111.236 C 83.165 111.236,82.509 108.183,84.557 102.334 C 85.547 99.505,86.720 95.200,87.164 92.766 C 87.607 90.332,89.181 85.361,90.661 81.719 C 93.405 74.964,93.285 70.787,90.346 70.787 C 89.445 70.787,88.215 72.177,87.612 73.876 C 87.009 75.576,85.923 77.978,85.198 79.213 C 80.918 86.511,77.338 113.505,80.142 117.339 C 83.214 121.540,94.904 112.090,100.055 101.241 C 103.134 94.754,104.458 94.330,109.194 98.315 C 113.187 101.675,120.357 102.096,126.193 99.313 C 129.923 97.534,130.123 97.573,137.588 101.535 C 149.091 107.639,152.426 104.492,151.062 88.820 C 150.462 81.924,150.776 78.761,152.745 71.910 C 154.076 67.275,155.673 61.713,156.292 59.551 C 159.022 50.024,156.621 44.659,152.354 50.750 M64.756 57.850 C 66.013 61.125,57.389 96.801,54.594 99.889 C 53.612 100.975,52.809 102.564,52.809 103.422 C 52.809 109.139,45.724 121.868,38.939 128.343 C 22.367 144.157,9.173 131.998,22.557 113.248 C 24.193 110.956,26.169 107.543,26.947 105.664 C 29.401 99.741,33.000 102.467,34.148 111.115 C 35.308 119.864,39.951 119.957,42.550 111.284 C 43.304 108.765,45.347 105.069,47.090 103.071 C 51.343 98.193,53.153 86.517,49.656 86.517 C 47.593 86.517,44.893 92.057,42.127 101.966 C 40.166 108.991,35.298 103.770,34.928 94.244 C 34.599 85.804,36.422 82.044,46.027 71.348 C 58.894 57.020,63.237 53.890,64.756 57.850 M28.806 83.786 C 30.765 86.776,28.693 97.677,25.829 99.446 C 24.194 100.457,20.225 110.102,20.225 113.064 C 20.225 115.085,19.613 115.726,17.697 115.713 C 12.654 115.679,11.761 114.178,13.238 108.218 C 13.975 105.243,14.871 100.534,15.229 97.753 C 16.955 84.340,24.251 76.835,28.806 83.786 M384.270 89.099 C 384.270 90.563,384.637 92.127,385.085 92.576 C 385.533 93.024,386.974 96.269,388.286 99.785 C 390.273 105.110,391.121 106.180,393.355 106.180 C 397.156 106.180,397.391 102.896,393.914 98.338 C 392.319 96.247,390.532 93.268,389.943 91.718 C 388.331 87.478,384.270 85.603,384.270 89.099 M145.849 92.407 C 146.247 97.093,143.847 98.562,138.877 96.672 C 135.963 95.564,135.933 95.460,137.751 92.685 C 141.751 86.581,145.342 86.457,145.849 92.407 M262.360 158.649 C 259.888 159.246,254.073 160.083,249.438 160.508 C 244.803 160.934,240.000 161.857,238.764 162.560 C 237.528 163.264,230.955 164.932,224.157 166.267 C 217.360 167.602,210.678 169.418,209.309 170.303 C 207.940 171.187,205.743 171.910,204.426 171.910 C 203.110 171.910,200.690 172.593,199.050 173.428 C 197.409 174.263,192.528 176.094,188.202 177.498 C 183.876 178.901,179.217 180.746,177.849 181.598 C 176.480 182.449,174.175 183.146,172.726 183.146 C 171.278 183.146,169.111 183.888,167.911 184.796 C 166.712 185.703,164.972 186.466,164.045 186.492 C 160.951 186.578,150.399 192.086,151.114 193.242 C 152.310 195.179,155.311 194.497,163.483 190.432 C 167.809 188.280,172.450 186.519,173.796 186.518 C 175.142 186.517,176.966 185.795,177.848 184.913 C 178.730 184.030,181.421 182.960,183.827 182.534 C 186.234 182.108,191.236 180.357,194.944 178.643 C 198.652 176.929,202.949 175.157,204.494 174.705 C 206.039 174.252,207.993 173.328,208.837 172.652 C 209.680 171.975,211.197 171.365,212.208 171.296 C 213.218 171.227,215.399 171.084,217.055 170.979 C 218.710 170.873,220.823 170.028,221.750 169.101 C 222.749 168.102,225.496 167.416,228.498 167.416 C 231.283 167.416,234.985 166.830,236.725 166.113 C 239.670 164.900,255.197 162.666,271.672 161.085 C 277.731 160.503,279.447 160.784,283.725 163.053 C 288.336 165.499,288.853 165.561,290.545 163.869 C 295.956 158.459,277.377 155.017,262.360 158.649 " stroke="none" fill="#000000" fill-rule="evenodd"></path></g></svg>